<svg width="24" height="24" viewBox="0 0 24 24" fill="none" xmlns="http://www.w3.org/2000/svg">
<path d="M12 16V11M9.5 14L11.5 16C11.5657 16.0657 11.6436 16.1178 11.7294 16.1533C11.8152 16.1889 11.9071 16.2072 12 16.2072C12.0929 16.2072 12.1848 16.1889 12.2706 16.1533C12.3564 16.1178 12.4343 16.0657 12.5 16L14.5 14M17.828 6.828C18.407 7.406 18.695 7.696 18.848 8.063C19 8.431 19 8.839 19 9.657V17C19 18.886 19 19.828 18.414 20.414C17.828 21 16.886 21 15 21H9C7.114 21 6.172 21 5.586 20.414C5 19.828 5 18.886 5 17V7C5 5.114 5 4.172 5.586 3.586C6.172 3 7.114 3 9 3H12.343C13.161 3 13.569 3 13.937 3.152C14.305 3.304 14.594 3.594 15.172 4.172L17.828 6.828Z" stroke="#1D1D1B" stroke-width="1.5" stroke-linecap="round" stroke-linejoin="round"/>
</svg>
