<svg width="24" height="24" viewBox="0 0 24 24" fill="none" xmlns="http://www.w3.org/2000/svg">
<path d="M5.86419 7.65455C5.47798 7.65455 5.15407 7.52727 4.89244 7.27273C4.63081 7.01818 4.5 6.70303 4.5 6.32727C4.5 5.95152 4.63081 5.63636 4.89244 5.38182C5.15407 5.12727 5.47798 5 5.86419 5C6.23795 5 6.55563 5.12727 6.81726 5.38182C7.07889 5.63636 7.2097 5.95152 7.2097 6.32727C7.2097 6.70303 7.07889 7.01818 6.81726 7.27273C6.55563 7.52727 6.23795 7.65455 5.86419 7.65455ZM6.9107 8.98182V19H4.78031V8.98182H6.9107Z" fill="#DBFF00"/>
<path d="M15.2766 8.81818C16.0864 8.81818 16.809 8.98182 17.4444 9.30909C18.0922 9.63636 18.5968 10.1212 18.9581 10.7636C19.3194 11.4061 19.5 12.1818 19.5 13.0909V19H17.3883V13.4C17.3883 12.503 17.1578 11.8182 16.6969 11.3455C16.2359 10.8606 15.6068 10.6182 14.8094 10.6182C14.0121 10.6182 13.3767 10.8606 12.9033 11.3455C12.4423 11.8182 12.2118 12.503 12.2118 13.4V19H10.0815V8.98182H12.2118V10.1273C12.5607 9.71515 13.0029 9.39394 13.5387 9.16364C14.0868 8.93333 14.6661 8.81818 15.2766 8.81818Z" fill="#DBFF00"/>
</svg>
