<svg width="24" height="24" viewBox="0 0 24 24" fill="none" xmlns="http://www.w3.org/2000/svg">
<path fill-rule="evenodd" clip-rule="evenodd" d="M9.99177 12.831C9.519 12.2277 8.94318 11.8646 8.26432 11.7415C8.91894 11.5076 9.4402 11.1444 9.82812 10.652C10.216 10.1596 10.41 9.54403 10.41 8.8054C10.41 8.18987 10.2524 7.63589 9.93722 7.14347C9.62204 6.63873 9.15532 6.23864 8.53708 5.94318C7.91883 5.64773 7.17936 5.5 6.31867 5.5H1.5V18.3338H6.55506C7.39151 18.3338 8.12491 18.1861 8.75528 17.8906C9.38565 17.5829 9.86448 17.1705 10.1918 16.6534C10.5312 16.1241 10.7009 15.5331 10.7009 14.8807C10.7009 14.1174 10.4645 13.4342 9.99177 12.831ZM6.13683 10.892H3.57294V7.21733H6.13683C6.81569 7.21733 7.34302 7.38352 7.71881 7.71591C8.10673 8.03599 8.30069 8.48532 8.30069 9.06392C8.30069 9.65483 8.10673 10.1103 7.71881 10.4304C7.34302 10.7382 6.81569 10.892 6.13683 10.892ZM8.02794 16.0994C7.62789 16.4441 7.07632 16.6165 6.37322 16.6165H3.57294V12.6094H6.30049C7.00359 12.6094 7.56728 12.794 7.99157 13.1634C8.41585 13.5327 8.628 14.0313 8.628 14.6591C8.628 15.2746 8.42798 15.7547 8.02794 16.0994Z" fill="#DBFF00"/>
<path fill-rule="evenodd" clip-rule="evenodd" d="M22.4273 14.0313C22.4758 13.7235 22.5 13.3788 22.5 12.9972C22.5 12.0123 22.2939 11.1444 21.8818 10.3935C21.4696 9.63021 20.8938 9.0393 20.1543 8.62074C19.4148 8.20218 18.5723 7.9929 17.6268 7.9929C16.6449 7.9929 15.772 8.20833 15.0083 8.6392C14.2567 9.07008 13.6688 9.68561 13.2445 10.4858C12.8324 11.2737 12.6263 12.1908 12.6263 13.2372C12.6263 14.2836 12.8384 15.2069 13.2627 16.0071C13.6991 16.795 14.2931 17.4105 15.0447 17.8537C15.8084 18.2846 16.6691 18.5 17.6268 18.5C18.8027 18.5 19.7846 18.2045 20.5725 17.6136C21.3726 17.0104 21.9242 16.241 22.2272 15.3054H19.9907C19.53 16.2533 18.742 16.7273 17.6268 16.7273C16.8509 16.7273 16.1963 16.4811 15.6629 15.9886C15.1296 15.4962 14.8326 14.8438 14.7719 14.0313H22.4273ZM19.5179 10.4673C20.0513 10.9351 20.324 11.5568 20.3361 12.3324H14.7901C14.8871 11.5445 15.1902 10.9228 15.6993 10.4673C16.2085 9.99953 16.8206 9.76563 17.5359 9.76563C18.3238 9.76563 18.9845 9.99953 19.5179 10.4673Z" fill="#DBFF00"/>
<path d="M14.6326 7.39789H20.6939V5.65388H14.6326V7.39789Z" fill="#DBFF00"/>
</svg>
