<svg width="0" height="0" class="hidden">
    <symbol fill="none" xmlns="http://www.w3.org/2000/svg" viewBox="0 0 32 32" id="ic_circle-check-list">
        <path d="M28 16C28 17.5759 27.6896 19.1363 27.0866 20.5922C26.4835 22.0481 25.5996 23.371 24.4853 24.4853C23.371 25.5996 22.0481 26.4835 20.5922 27.0866C19.1363 27.6896 17.5759 28 16 28C14.4241 28 12.8637 27.6896 11.4078 27.0866C9.95189 26.4835 8.62902 25.5996 7.51472 24.4853C6.40042 23.371 5.5165 22.0481 4.91345 20.5922C4.31039 19.1363 4 17.5759 4 16C4 12.8174 5.26428 9.76516 7.51472 7.51472C9.76515 5.26428 12.8174 4 16 4C19.1826 4 22.2348 5.26428 24.4853 7.51472C26.7357 9.76516 28 12.8174 28 16Z" fill="#031C0A" stroke="#0AAF45" stroke-width="1.5" stroke-linecap="round" stroke-linejoin="round"></path>
        <path d="M12 15.9999L14.244 18.2439C14.4773 18.4773 14.856 18.4773 15.0893 18.2439L20 13.3333" stroke="#0AAF45" stroke-width="1.5" stroke-linecap="round" stroke-linejoin="round"></path>
    </symbol>
    <symbol fill="none" xmlns="http://www.w3.org/2000/svg" viewBox="0 0 32 32" id="ic_circle-x-list">
        <path d="M28 16C28 17.5759 27.6896 19.1363 27.0866 20.5922C26.4835 22.0481 25.5996 23.371 24.4853 24.4853C23.371 25.5996 22.0481 26.4835 20.5922 27.0866C19.1363 27.6896 17.5759 28 16 28C14.4241 28 12.8637 27.6896 11.4078 27.0866C9.95189 26.4835 8.62902 25.5996 7.51472 24.4853C6.40042 23.371 5.5165 22.0481 4.91345 20.5922C4.31039 19.1363 4 17.5759 4 16C4 12.8174 5.26428 9.76516 7.51472 7.51472C9.76516 5.26428 12.8174 4 16 4C19.1826 4 22.2348 5.26428 24.4853 7.51472C26.7357 9.76516 28 12.8174 28 16ZM12 12L20 20ZM20 12L12 20Z" fill="#160401"></path>
        <path d="M12 12L20 20M20 12L12 20M28 16C28 17.5759 27.6896 19.1363 27.0866 20.5922C26.4835 22.0481 25.5996 23.371 24.4853 24.4853C23.371 25.5996 22.0481 26.4835 20.5922 27.0866C19.1363 27.6896 17.5759 28 16 28C14.4241 28 12.8637 27.6896 11.4078 27.0866C9.95189 26.4835 8.62902 25.5996 7.51472 24.4853C6.40042 23.371 5.5165 22.0481 4.91345 20.5922C4.31039 19.1363 4 17.5759 4 16C4 12.8174 5.26428 9.76516 7.51472 7.51472C9.76516 5.26428 12.8174 4 16 4C19.1826 4 22.2348 5.26428 24.4853 7.51472C26.7357 9.76516 28 12.8174 28 16Z" stroke="#9A1E0E" stroke-width="1.5" stroke-linecap="round" stroke-linejoin="round"></path>
    </symbol>
    <symbol fill="none" xmlns="http://www.w3.org/2000/svg" viewBox="0 0 24 24" id="ic_document-download-bk">
        <path d="M12 16V11M9.5 14L11.5 16C11.5657 16.0657 11.6436 16.1178 11.7294 16.1533C11.8152 16.1889 11.9071 16.2072 12 16.2072C12.0929 16.2072 12.1848 16.1889 12.2706 16.1533C12.3564 16.1178 12.4343 16.0657 12.5 16L14.5 14M17.828 6.828C18.407 7.406 18.695 7.696 18.848 8.063C19 8.431 19 8.839 19 9.657V17C19 18.886 19 19.828 18.414 20.414C17.828 21 16.886 21 15 21H9C7.114 21 6.172 21 5.586 20.414C5 19.828 5 18.886 5 17V7C5 5.114 5 4.172 5.586 3.586C6.172 3 7.114 3 9 3H12.343C13.161 3 13.569 3 13.937 3.152C14.305 3.304 14.594 3.594 15.172 4.172L17.828 6.828Z" stroke="#1D1D1B" stroke-width="1.5" stroke-linecap="round" stroke-linejoin="round"></path>
    </symbol>
    <symbol fill="none" xmlns="http://www.w3.org/2000/svg" viewBox="0 0 24 24" id="ic_menu">
        <path d="M7 12H17M7 7H17M7 17H17" stroke="#F5F5F4" stroke-width="1.5" stroke-linecap="round" stroke-linejoin="round"></path>
    </symbol>
    <symbol fill="none" xmlns="http://www.w3.org/2000/svg" viewBox="0 0 24 24" id="ic_document-download">
        <path d="M12 16V11M9.5 14L11.5 16C11.5657 16.0657 11.6436 16.1178 11.7294 16.1533C11.8152 16.1889 11.9071 16.2072 12 16.2072C12.0929 16.2072 12.1848 16.1889 12.2706 16.1533C12.3564 16.1178 12.4343 16.0657 12.5 16L14.5 14M17.828 6.828C18.407 7.406 18.695 7.696 18.848 8.063C19 8.431 19 8.839 19 9.657V17C19 18.886 19 19.828 18.414 20.414C17.828 21 16.886 21 15 21H9C7.114 21 6.172 21 5.586 20.414C5 19.828 5 18.886 5 17V7C5 5.114 5 4.172 5.586 3.586C6.172 3 7.114 3 9 3H12.343C13.161 3 13.569 3 13.937 3.152C14.305 3.304 14.594 3.594 15.172 4.172L17.828 6.828Z" stroke="#DBFF00" stroke-width="1.5" stroke-linecap="round" stroke-linejoin="round"></path>
    </symbol>
    <symbol fill="none" xmlns="http://www.w3.org/2000/svg" viewBox="0 0 24 24" id="ic_social-be">
        <path fill-rule="evenodd" clip-rule="evenodd" d="M9.99177 12.831C9.519 12.2277 8.94318 11.8646 8.26432 11.7415C8.91894 11.5076 9.4402 11.1444 9.82812 10.652C10.216 10.1596 10.41 9.54403 10.41 8.8054C10.41 8.18987 10.2524 7.63589 9.93722 7.14347C9.62204 6.63873 9.15532 6.23864 8.53708 5.94318C7.91883 5.64773 7.17936 5.5 6.31867 5.5H1.5V18.3338H6.55506C7.39151 18.3338 8.12491 18.1861 8.75528 17.8906C9.38565 17.5829 9.86448 17.1705 10.1918 16.6534C10.5312 16.1241 10.7009 15.5331 10.7009 14.8807C10.7009 14.1174 10.4645 13.4342 9.99177 12.831ZM6.13683 10.892H3.57294V7.21733H6.13683C6.81569 7.21733 7.34302 7.38352 7.71881 7.71591C8.10673 8.03599 8.30069 8.48532 8.30069 9.06392C8.30069 9.65483 8.10673 10.1103 7.71881 10.4304C7.34302 10.7382 6.81569 10.892 6.13683 10.892ZM8.02794 16.0994C7.62789 16.4441 7.07632 16.6165 6.37322 16.6165H3.57294V12.6094H6.30049C7.00359 12.6094 7.56728 12.794 7.99157 13.1634C8.41585 13.5327 8.628 14.0313 8.628 14.6591C8.628 15.2746 8.42798 15.7547 8.02794 16.0994Z" fill="#DBFF00"></path>
        <path fill-rule="evenodd" clip-rule="evenodd" d="M22.4273 14.0313C22.4758 13.7235 22.5 13.3788 22.5 12.9972C22.5 12.0123 22.2939 11.1444 21.8818 10.3935C21.4696 9.63021 20.8938 9.0393 20.1543 8.62074C19.4148 8.20218 18.5723 7.9929 17.6268 7.9929C16.6449 7.9929 15.772 8.20833 15.0083 8.6392C14.2567 9.07008 13.6688 9.68561 13.2445 10.4858C12.8324 11.2737 12.6263 12.1908 12.6263 13.2372C12.6263 14.2836 12.8384 15.2069 13.2627 16.0071C13.6991 16.795 14.2931 17.4105 15.0447 17.8537C15.8084 18.2846 16.6691 18.5 17.6268 18.5C18.8027 18.5 19.7846 18.2045 20.5725 17.6136C21.3726 17.0104 21.9242 16.241 22.2272 15.3054H19.9907C19.53 16.2533 18.742 16.7273 17.6268 16.7273C16.8509 16.7273 16.1963 16.4811 15.6629 15.9886C15.1296 15.4962 14.8326 14.8438 14.7719 14.0313H22.4273ZM19.5179 10.4673C20.0513 10.9351 20.324 11.5568 20.3361 12.3324H14.7901C14.8871 11.5445 15.1902 10.9228 15.6993 10.4673C16.2085 9.99953 16.8206 9.76563 17.5359 9.76563C18.3238 9.76563 18.9845 9.99953 19.5179 10.4673Z" fill="#DBFF00"></path>
        <path d="M14.6326 7.39789H20.6939V5.65388H14.6326V7.39789Z" fill="#DBFF00"></path>
    </symbol>
    <symbol fill="none" xmlns="http://www.w3.org/2000/svg" viewBox="0 0 24 24" id="ic_social-in">
        <path d="M5.86419 7.65455C5.47798 7.65455 5.15407 7.52727 4.89244 7.27273C4.63081 7.01818 4.5 6.70303 4.5 6.32727C4.5 5.95152 4.63081 5.63636 4.89244 5.38182C5.15407 5.12727 5.47798 5 5.86419 5C6.23795 5 6.55563 5.12727 6.81726 5.38182C7.07889 5.63636 7.2097 5.95152 7.2097 6.32727C7.2097 6.70303 7.07889 7.01818 6.81726 7.27273C6.55563 7.52727 6.23795 7.65455 5.86419 7.65455ZM6.9107 8.98182V19H4.78031V8.98182H6.9107Z" fill="#DBFF00"></path>
        <path d="M15.2766 8.81818C16.0864 8.81818 16.809 8.98182 17.4444 9.30909C18.0922 9.63636 18.5968 10.1212 18.9581 10.7636C19.3194 11.4061 19.5 12.1818 19.5 13.0909V19H17.3883V13.4C17.3883 12.503 17.1578 11.8182 16.6969 11.3455C16.2359 10.8606 15.6068 10.6182 14.8094 10.6182C14.0121 10.6182 13.3767 10.8606 12.9033 11.3455C12.4423 11.8182 12.2118 12.503 12.2118 13.4V19H10.0815V8.98182H12.2118V10.1273C12.5607 9.71515 13.0029 9.39394 13.5387 9.16364C14.0868 8.93333 14.6661 8.81818 15.2766 8.81818Z" fill="#DBFF00"></path>
    </symbol>
</svg>

